<mxfile host="app.diagrams.net" modified="2024-05-31T13:19:32.815Z" agent="Mozilla/5.0 (Windows NT 10.0; Win64; x64) AppleWebKit/537.36 (KHTML, like Gecko) Chrome/125.0.0.0 Safari/537.36" etag="Gj31lblwxdjMW5oSKw2H" version="24.4.13" type="device">
  <diagram id="C5RBs43oDa-KdzZeNtuy" name="Page-1">
    <mxGraphModel dx="3088" dy="738" grid="1" gridSize="10" guides="1" tooltips="1" connect="1" arrows="0" fold="1" page="1" pageScale="1" pageWidth="827" pageHeight="1169" math="0" shadow="1">
      <root>
        <mxCell id="WIyWlLk6GJQsqaUBKTNV-0" />
        <mxCell id="WIyWlLk6GJQsqaUBKTNV-1" parent="WIyWlLk6GJQsqaUBKTNV-0" />
        <mxCell id="l3N1diXPYdpLU_695h6g-88" style="rounded=0;orthogonalLoop=1;jettySize=auto;html=1;exitX=0.25;exitY=1;exitDx=0;exitDy=0;endArrow=none;endFill=0;" parent="WIyWlLk6GJQsqaUBKTNV-1" source="RfL5RgnEd81x4pItcq7L-2" target="l3N1diXPYdpLU_695h6g-89" edge="1">
          <mxGeometry relative="1" as="geometry">
            <mxPoint x="-1310" y="299.9999999999999" as="targetPoint" />
          </mxGeometry>
        </mxCell>
        <mxCell id="RfL5RgnEd81x4pItcq7L-2" value="Inventory User" style="rounded=0;whiteSpace=wrap;html=1;labelBackgroundColor=none;" parent="WIyWlLk6GJQsqaUBKTNV-1" vertex="1">
          <mxGeometry x="-1410" y="150" width="100" height="40" as="geometry" />
        </mxCell>
        <mxCell id="RfL5RgnEd81x4pItcq7L-3" value="Product&amp;nbsp;&lt;div&gt;Category&lt;/div&gt;" style="rounded=0;whiteSpace=wrap;html=1;labelBackgroundColor=none;" parent="WIyWlLk6GJQsqaUBKTNV-1" vertex="1">
          <mxGeometry x="-1004.5" y="142.5" width="100" height="40" as="geometry" />
        </mxCell>
        <mxCell id="RfL5RgnEd81x4pItcq7L-15" value="&lt;font style=&quot;font-size: 10px;&quot;&gt;included&lt;/font&gt;" style="rhombus;whiteSpace=wrap;html=1;align=center;labelBackgroundColor=none;" parent="WIyWlLk6GJQsqaUBKTNV-1" vertex="1">
          <mxGeometry x="-862" y="137.5" width="49" height="45" as="geometry" />
        </mxCell>
        <mxCell id="RfL5RgnEd81x4pItcq7L-17" value="" style="endArrow=none;html=1;rounded=0;exitX=1;exitY=0.5;exitDx=0;exitDy=0;labelBackgroundColor=none;fontColor=default;" parent="WIyWlLk6GJQsqaUBKTNV-1" source="RfL5RgnEd81x4pItcq7L-3" target="RfL5RgnEd81x4pItcq7L-15" edge="1">
          <mxGeometry width="50" height="50" relative="1" as="geometry">
            <mxPoint x="-928" y="210" as="sourcePoint" />
            <mxPoint x="-878" y="160" as="targetPoint" />
          </mxGeometry>
        </mxCell>
        <mxCell id="RfL5RgnEd81x4pItcq7L-22" value="" style="endArrow=none;html=1;rounded=0;exitX=1;exitY=0.5;exitDx=0;exitDy=0;labelBackgroundColor=none;fontColor=default;" parent="WIyWlLk6GJQsqaUBKTNV-1" edge="1">
          <mxGeometry width="50" height="50" relative="1" as="geometry">
            <mxPoint x="-824" y="159.96000000000004" as="sourcePoint" />
            <mxPoint x="-824" y="159.96000000000004" as="targetPoint" />
            <Array as="points" />
          </mxGeometry>
        </mxCell>
        <mxCell id="RfL5RgnEd81x4pItcq7L-24" value="" style="shape=link;endArrow=classic;startArrow=classic;html=1;rounded=0;entryX=0;entryY=0.5;entryDx=0;entryDy=0;exitX=0.94;exitY=0.511;exitDx=0;exitDy=0;exitPerimeter=0;labelBackgroundColor=none;fontColor=default;" parent="WIyWlLk6GJQsqaUBKTNV-1" source="RfL5RgnEd81x4pItcq7L-15" edge="1">
          <mxGeometry width="100" height="100" relative="1" as="geometry">
            <mxPoint x="-824" y="160" as="sourcePoint" />
            <mxPoint x="-784" y="160" as="targetPoint" />
          </mxGeometry>
        </mxCell>
        <mxCell id="RfL5RgnEd81x4pItcq7L-41" value="Orders" style="rounded=0;whiteSpace=wrap;html=1;labelBackgroundColor=none;" parent="WIyWlLk6GJQsqaUBKTNV-1" vertex="1">
          <mxGeometry x="-780" y="490" width="100" height="40" as="geometry" />
        </mxCell>
        <mxCell id="RfL5RgnEd81x4pItcq7L-59" value="&lt;div style=&quot;&quot;&gt;&lt;span style=&quot;background-color: initial;&quot;&gt;&lt;font style=&quot;font-size: 10px;&quot;&gt;access&lt;/font&gt;&lt;/span&gt;&lt;/div&gt;" style="rhombus;whiteSpace=wrap;html=1;align=center;labelBackgroundColor=none;" parent="WIyWlLk6GJQsqaUBKTNV-1" vertex="1">
          <mxGeometry x="-1199" y="145" width="49" height="45" as="geometry" />
        </mxCell>
        <mxCell id="RfL5RgnEd81x4pItcq7L-60" value="" style="endArrow=none;html=1;rounded=0;entryX=0;entryY=0.5;entryDx=0;entryDy=0;" parent="WIyWlLk6GJQsqaUBKTNV-1" target="RfL5RgnEd81x4pItcq7L-59" edge="1">
          <mxGeometry width="50" height="50" relative="1" as="geometry">
            <mxPoint x="-1310" y="170" as="sourcePoint" />
            <mxPoint x="-1280" y="169.71000000000004" as="targetPoint" />
          </mxGeometry>
        </mxCell>
        <mxCell id="RfL5RgnEd81x4pItcq7L-61" value="" style="endArrow=none;html=1;rounded=0;exitX=1;exitY=0.5;exitDx=0;exitDy=0;entryX=0;entryY=0.5;entryDx=0;entryDy=0;" parent="WIyWlLk6GJQsqaUBKTNV-1" source="RfL5RgnEd81x4pItcq7L-59" target="RfL5RgnEd81x4pItcq7L-3" edge="1">
          <mxGeometry width="50" height="50" relative="1" as="geometry">
            <mxPoint x="-1215" y="169.65999999999997" as="sourcePoint" />
            <mxPoint x="-1186" y="170" as="targetPoint" />
          </mxGeometry>
        </mxCell>
        <mxCell id="RfL5RgnEd81x4pItcq7L-63" value="Sub Category" style="shape=ext;margin=3;double=1;whiteSpace=wrap;html=1;align=center;" parent="WIyWlLk6GJQsqaUBKTNV-1" vertex="1">
          <mxGeometry x="-790" y="140" width="100" height="40" as="geometry" />
        </mxCell>
        <mxCell id="RfL5RgnEd81x4pItcq7L-91" style="rounded=0;orthogonalLoop=1;jettySize=auto;html=1;exitX=1;exitY=1;exitDx=0;exitDy=0;entryX=0.25;entryY=0;entryDx=0;entryDy=0;endArrow=none;endFill=0;" parent="WIyWlLk6GJQsqaUBKTNV-1" source="RfL5RgnEd81x4pItcq7L-70" target="RfL5RgnEd81x4pItcq7L-2" edge="1">
          <mxGeometry relative="1" as="geometry" />
        </mxCell>
        <mxCell id="RfL5RgnEd81x4pItcq7L-70" value="Name" style="ellipse;whiteSpace=wrap;html=1;align=center;" parent="WIyWlLk6GJQsqaUBKTNV-1" vertex="1">
          <mxGeometry x="-1520" y="80" width="90" height="30" as="geometry" />
        </mxCell>
        <mxCell id="RfL5RgnEd81x4pItcq7L-71" value="&lt;u&gt;ID&lt;/u&gt;" style="ellipse;whiteSpace=wrap;html=1;align=center;" parent="WIyWlLk6GJQsqaUBKTNV-1" vertex="1">
          <mxGeometry x="-1470" y="50" width="90" height="30" as="geometry" />
        </mxCell>
        <mxCell id="RfL5RgnEd81x4pItcq7L-92" style="rounded=0;orthogonalLoop=1;jettySize=auto;html=1;exitX=1;exitY=1;exitDx=0;exitDy=0;entryX=0.25;entryY=0;entryDx=0;entryDy=0;endArrow=none;endFill=0;" parent="WIyWlLk6GJQsqaUBKTNV-1" source="RfL5RgnEd81x4pItcq7L-78" target="RfL5RgnEd81x4pItcq7L-2" edge="1">
          <mxGeometry relative="1" as="geometry" />
        </mxCell>
        <mxCell id="RfL5RgnEd81x4pItcq7L-78" value="D. O. B" style="ellipse;whiteSpace=wrap;html=1;align=center;dashed=1;dashPattern=1 1;" parent="WIyWlLk6GJQsqaUBKTNV-1" vertex="1">
          <mxGeometry x="-1520" y="120" width="90" height="30" as="geometry" />
        </mxCell>
        <mxCell id="RfL5RgnEd81x4pItcq7L-87" style="rounded=0;orthogonalLoop=1;jettySize=auto;html=1;exitX=0;exitY=1;exitDx=0;exitDy=0;entryX=1;entryY=0;entryDx=0;entryDy=0;endArrow=none;endFill=0;" parent="WIyWlLk6GJQsqaUBKTNV-1" source="zxQTVrmICiQA8yJ6TlIw-4" target="RfL5RgnEd81x4pItcq7L-2" edge="1">
          <mxGeometry relative="1" as="geometry">
            <mxPoint x="-1226.8198051533946" y="105.60660171779818" as="sourcePoint" />
          </mxGeometry>
        </mxCell>
        <mxCell id="RfL5RgnEd81x4pItcq7L-88" style="rounded=0;orthogonalLoop=1;jettySize=auto;html=1;exitX=0;exitY=1;exitDx=0;exitDy=0;entryX=0.75;entryY=0;entryDx=0;entryDy=0;endArrow=none;endFill=0;" parent="WIyWlLk6GJQsqaUBKTNV-1" source="zxQTVrmICiQA8yJ6TlIw-1" target="RfL5RgnEd81x4pItcq7L-2" edge="1">
          <mxGeometry relative="1" as="geometry">
            <mxPoint x="-1265" y="80" as="sourcePoint" />
          </mxGeometry>
        </mxCell>
        <mxCell id="RfL5RgnEd81x4pItcq7L-89" style="rounded=0;orthogonalLoop=1;jettySize=auto;html=1;exitX=0.5;exitY=1;exitDx=0;exitDy=0;entryX=0.75;entryY=0;entryDx=0;entryDy=0;endArrow=none;endFill=0;" parent="WIyWlLk6GJQsqaUBKTNV-1" source="zxQTVrmICiQA8yJ6TlIw-3" target="RfL5RgnEd81x4pItcq7L-2" edge="1">
          <mxGeometry relative="1" as="geometry">
            <mxPoint x="-1345" y="60" as="sourcePoint" />
          </mxGeometry>
        </mxCell>
        <mxCell id="RfL5RgnEd81x4pItcq7L-90" style="rounded=0;orthogonalLoop=1;jettySize=auto;html=1;exitX=0.5;exitY=1;exitDx=0;exitDy=0;entryX=0.574;entryY=0.018;entryDx=0;entryDy=0;entryPerimeter=0;endArrow=none;endFill=0;jumpStyle=none;" parent="WIyWlLk6GJQsqaUBKTNV-1" source="RfL5RgnEd81x4pItcq7L-71" target="RfL5RgnEd81x4pItcq7L-2" edge="1">
          <mxGeometry relative="1" as="geometry" />
        </mxCell>
        <mxCell id="l3N1diXPYdpLU_695h6g-5" style="rounded=0;orthogonalLoop=1;jettySize=auto;html=1;exitX=1;exitY=0;exitDx=0;exitDy=0;entryX=0;entryY=0.75;entryDx=0;entryDy=0;endArrow=none;endFill=0;" parent="WIyWlLk6GJQsqaUBKTNV-1" source="l3N1diXPYdpLU_695h6g-2" target="RfL5RgnEd81x4pItcq7L-2" edge="1">
          <mxGeometry relative="1" as="geometry" />
        </mxCell>
        <mxCell id="l3N1diXPYdpLU_695h6g-2" value="password" style="ellipse;whiteSpace=wrap;html=1;align=center;" parent="WIyWlLk6GJQsqaUBKTNV-1" vertex="1">
          <mxGeometry x="-1510" y="200" width="90" height="30" as="geometry" />
        </mxCell>
        <mxCell id="l3N1diXPYdpLU_695h6g-4" style="rounded=0;orthogonalLoop=1;jettySize=auto;html=1;exitX=1;exitY=0.5;exitDx=0;exitDy=0;entryX=0;entryY=0.5;entryDx=0;entryDy=0;endArrow=none;endFill=0;" parent="WIyWlLk6GJQsqaUBKTNV-1" source="l3N1diXPYdpLU_695h6g-3" target="RfL5RgnEd81x4pItcq7L-2" edge="1">
          <mxGeometry relative="1" as="geometry" />
        </mxCell>
        <mxCell id="l3N1diXPYdpLU_695h6g-3" value="role" style="ellipse;whiteSpace=wrap;html=1;align=center;" parent="WIyWlLk6GJQsqaUBKTNV-1" vertex="1">
          <mxGeometry x="-1530" y="160" width="90" height="30" as="geometry" />
        </mxCell>
        <mxCell id="l3N1diXPYdpLU_695h6g-13" style="rounded=0;orthogonalLoop=1;jettySize=auto;html=1;exitX=0.5;exitY=1;exitDx=0;exitDy=0;entryX=0.5;entryY=0;entryDx=0;entryDy=0;endArrow=none;endFill=0;" parent="WIyWlLk6GJQsqaUBKTNV-1" source="l3N1diXPYdpLU_695h6g-6" target="RfL5RgnEd81x4pItcq7L-3" edge="1">
          <mxGeometry relative="1" as="geometry" />
        </mxCell>
        <mxCell id="l3N1diXPYdpLU_695h6g-6" value="C_ID" style="ellipse;whiteSpace=wrap;html=1;align=center;fontStyle=4;" parent="WIyWlLk6GJQsqaUBKTNV-1" vertex="1">
          <mxGeometry x="-1037" y="40" width="85" height="30" as="geometry" />
        </mxCell>
        <mxCell id="l3N1diXPYdpLU_695h6g-14" style="rounded=0;orthogonalLoop=1;jettySize=auto;html=1;exitX=0;exitY=1;exitDx=0;exitDy=0;entryX=0.5;entryY=0;entryDx=0;entryDy=0;endArrow=none;endFill=0;" parent="WIyWlLk6GJQsqaUBKTNV-1" source="l3N1diXPYdpLU_695h6g-8" target="RfL5RgnEd81x4pItcq7L-3" edge="1">
          <mxGeometry relative="1" as="geometry" />
        </mxCell>
        <mxCell id="l3N1diXPYdpLU_695h6g-8" value="C_Name" style="ellipse;whiteSpace=wrap;html=1;align=center;" parent="WIyWlLk6GJQsqaUBKTNV-1" vertex="1">
          <mxGeometry x="-952" y="30" width="90" height="30" as="geometry" />
        </mxCell>
        <mxCell id="l3N1diXPYdpLU_695h6g-15" style="rounded=0;orthogonalLoop=1;jettySize=auto;html=1;exitX=0.5;exitY=1;exitDx=0;exitDy=0;endArrow=none;endFill=0;" parent="WIyWlLk6GJQsqaUBKTNV-1" source="l3N1diXPYdpLU_695h6g-9" target="RfL5RgnEd81x4pItcq7L-63" edge="1">
          <mxGeometry relative="1" as="geometry" />
        </mxCell>
        <mxCell id="l3N1diXPYdpLU_695h6g-9" value="Buying Price" style="ellipse;whiteSpace=wrap;html=1;align=center;" parent="WIyWlLk6GJQsqaUBKTNV-1" vertex="1">
          <mxGeometry x="-833" y="90" width="90" height="30" as="geometry" />
        </mxCell>
        <mxCell id="l3N1diXPYdpLU_695h6g-17" style="rounded=0;orthogonalLoop=1;jettySize=auto;html=1;exitX=1;exitY=1;exitDx=0;exitDy=0;entryX=0.5;entryY=0;entryDx=0;entryDy=0;endArrow=none;endFill=0;" parent="WIyWlLk6GJQsqaUBKTNV-1" source="l3N1diXPYdpLU_695h6g-11" target="RfL5RgnEd81x4pItcq7L-63" edge="1">
          <mxGeometry relative="1" as="geometry" />
        </mxCell>
        <mxCell id="l3N1diXPYdpLU_695h6g-11" value="C_ID" style="ellipse;whiteSpace=wrap;html=1;align=center;" parent="WIyWlLk6GJQsqaUBKTNV-1" vertex="1">
          <mxGeometry x="-803" y="60" width="90" height="30" as="geometry" />
        </mxCell>
        <mxCell id="l3N1diXPYdpLU_695h6g-18" style="rounded=0;orthogonalLoop=1;jettySize=auto;html=1;exitX=0;exitY=1;exitDx=0;exitDy=0;entryX=0.5;entryY=0;entryDx=0;entryDy=0;endArrow=none;endFill=0;" parent="WIyWlLk6GJQsqaUBKTNV-1" source="l3N1diXPYdpLU_695h6g-12" target="RfL5RgnEd81x4pItcq7L-63" edge="1">
          <mxGeometry relative="1" as="geometry" />
        </mxCell>
        <mxCell id="l3N1diXPYdpLU_695h6g-12" value="S_Name" style="ellipse;whiteSpace=wrap;html=1;align=center;" parent="WIyWlLk6GJQsqaUBKTNV-1" vertex="1">
          <mxGeometry x="-713" y="50" width="90" height="30" as="geometry" />
        </mxCell>
        <mxCell id="l3N1diXPYdpLU_695h6g-20" style="rounded=0;orthogonalLoop=1;jettySize=auto;html=1;exitX=0;exitY=1;exitDx=0;exitDy=0;entryX=0.75;entryY=0;entryDx=0;entryDy=0;endArrow=none;endFill=0;" parent="WIyWlLk6GJQsqaUBKTNV-1" source="l3N1diXPYdpLU_695h6g-19" target="RfL5RgnEd81x4pItcq7L-63" edge="1">
          <mxGeometry relative="1" as="geometry" />
        </mxCell>
        <mxCell id="l3N1diXPYdpLU_695h6g-19" value="Selling Price" style="ellipse;whiteSpace=wrap;html=1;align=center;" parent="WIyWlLk6GJQsqaUBKTNV-1" vertex="1">
          <mxGeometry x="-704" y="90" width="90" height="30" as="geometry" />
        </mxCell>
        <mxCell id="l3N1diXPYdpLU_695h6g-38" style="rounded=0;orthogonalLoop=1;jettySize=auto;html=1;exitX=0.5;exitY=1;exitDx=0;exitDy=0;entryX=0.75;entryY=0;entryDx=0;entryDy=0;endArrow=none;endFill=0;" parent="WIyWlLk6GJQsqaUBKTNV-1" source="l3N1diXPYdpLU_695h6g-37" target="RfL5RgnEd81x4pItcq7L-41" edge="1">
          <mxGeometry relative="1" as="geometry" />
        </mxCell>
        <mxCell id="l3N1diXPYdpLU_695h6g-37" value="Order_ID" style="ellipse;whiteSpace=wrap;html=1;align=center;fontStyle=4;" parent="WIyWlLk6GJQsqaUBKTNV-1" vertex="1">
          <mxGeometry x="-713" y="370" width="85" height="30" as="geometry" />
        </mxCell>
        <mxCell id="l3N1diXPYdpLU_695h6g-52" style="rounded=0;orthogonalLoop=1;jettySize=auto;html=1;exitX=0;exitY=1;exitDx=0;exitDy=0;entryX=1;entryY=0.25;entryDx=0;entryDy=0;endArrow=none;endFill=0;" parent="WIyWlLk6GJQsqaUBKTNV-1" source="l3N1diXPYdpLU_695h6g-42" target="RfL5RgnEd81x4pItcq7L-41" edge="1">
          <mxGeometry relative="1" as="geometry" />
        </mxCell>
        <mxCell id="l3N1diXPYdpLU_695h6g-42" value="Product amount" style="ellipse;whiteSpace=wrap;html=1;align=center;" parent="WIyWlLk6GJQsqaUBKTNV-1" vertex="1">
          <mxGeometry x="-670" y="430" width="90" height="30" as="geometry" />
        </mxCell>
        <mxCell id="l3N1diXPYdpLU_695h6g-56" style="rounded=0;orthogonalLoop=1;jettySize=auto;html=1;exitX=0.5;exitY=0;exitDx=0;exitDy=0;entryX=1;entryY=0.75;entryDx=0;entryDy=0;endArrow=none;endFill=0;" parent="WIyWlLk6GJQsqaUBKTNV-1" source="l3N1diXPYdpLU_695h6g-57" target="RfL5RgnEd81x4pItcq7L-41" edge="1">
          <mxGeometry relative="1" as="geometry">
            <mxPoint x="-838.9237728803348" y="544.5262421231635" as="sourcePoint" />
          </mxGeometry>
        </mxCell>
        <mxCell id="l3N1diXPYdpLU_695h6g-57" value="customer_id" style="ellipse;whiteSpace=wrap;html=1;align=center;" parent="WIyWlLk6GJQsqaUBKTNV-1" vertex="1">
          <mxGeometry x="-623" y="495" width="90" height="30" as="geometry" />
        </mxCell>
        <mxCell id="l3N1diXPYdpLU_695h6g-63" style="rounded=0;orthogonalLoop=1;jettySize=auto;html=1;exitX=0;exitY=1;exitDx=0;exitDy=0;entryX=1;entryY=1;entryDx=0;entryDy=0;endArrow=none;endFill=0;" parent="WIyWlLk6GJQsqaUBKTNV-1" source="l3N1diXPYdpLU_695h6g-62" target="RfL5RgnEd81x4pItcq7L-41" edge="1">
          <mxGeometry relative="1" as="geometry" />
        </mxCell>
        <mxCell id="l3N1diXPYdpLU_695h6g-62" value="S_id" style="ellipse;whiteSpace=wrap;html=1;align=center;" parent="WIyWlLk6GJQsqaUBKTNV-1" vertex="1">
          <mxGeometry x="-623" y="555" width="90" height="30" as="geometry" />
        </mxCell>
        <mxCell id="SdZDki-d2998t1S9M0rV-50" style="edgeStyle=orthogonalEdgeStyle;rounded=0;orthogonalLoop=1;jettySize=auto;html=1;exitX=0.5;exitY=1;exitDx=0;exitDy=0;entryX=0;entryY=0.5;entryDx=0;entryDy=0;endArrow=none;endFill=0;" parent="WIyWlLk6GJQsqaUBKTNV-1" source="l3N1diXPYdpLU_695h6g-67" target="l3N1diXPYdpLU_695h6g-68" edge="1">
          <mxGeometry relative="1" as="geometry" />
        </mxCell>
        <mxCell id="l3N1diXPYdpLU_695h6g-67" value="Customer" style="rounded=0;whiteSpace=wrap;html=1;labelBackgroundColor=none;" parent="WIyWlLk6GJQsqaUBKTNV-1" vertex="1">
          <mxGeometry x="-1432.5" y="470" width="100" height="40" as="geometry" />
        </mxCell>
        <mxCell id="SdZDki-d2998t1S9M0rV-51" style="edgeStyle=orthogonalEdgeStyle;rounded=0;orthogonalLoop=1;jettySize=auto;html=1;exitX=1;exitY=0.5;exitDx=0;exitDy=0;entryX=0.5;entryY=1;entryDx=0;entryDy=0;endArrow=none;endFill=0;" parent="WIyWlLk6GJQsqaUBKTNV-1" source="l3N1diXPYdpLU_695h6g-68" target="RfL5RgnEd81x4pItcq7L-41" edge="1">
          <mxGeometry relative="1" as="geometry" />
        </mxCell>
        <mxCell id="l3N1diXPYdpLU_695h6g-68" value="&lt;font style=&quot;font-size: 10px;&quot;&gt;create&lt;/font&gt;" style="rhombus;whiteSpace=wrap;html=1;align=center;labelBackgroundColor=none;" parent="WIyWlLk6GJQsqaUBKTNV-1" vertex="1">
          <mxGeometry x="-1165.5" y="600" width="45" height="40" as="geometry" />
        </mxCell>
        <mxCell id="l3N1diXPYdpLU_695h6g-70" style="rounded=0;orthogonalLoop=1;jettySize=auto;html=1;exitX=0.5;exitY=1;exitDx=0;exitDy=0;entryX=0.75;entryY=0;entryDx=0;entryDy=0;endArrow=none;endFill=0;" parent="WIyWlLk6GJQsqaUBKTNV-1" source="l3N1diXPYdpLU_695h6g-71" target="l3N1diXPYdpLU_695h6g-67" edge="1">
          <mxGeometry relative="1" as="geometry" />
        </mxCell>
        <mxCell id="l3N1diXPYdpLU_695h6g-71" value="Customer_ID" style="ellipse;whiteSpace=wrap;html=1;align=center;fontStyle=4;" parent="WIyWlLk6GJQsqaUBKTNV-1" vertex="1">
          <mxGeometry x="-1376" y="375" width="85" height="30" as="geometry" />
        </mxCell>
        <mxCell id="l3N1diXPYdpLU_695h6g-76" style="rounded=0;orthogonalLoop=1;jettySize=auto;html=1;exitX=1;exitY=1;exitDx=0;exitDy=0;entryX=0.25;entryY=0;entryDx=0;entryDy=0;endArrow=none;endFill=0;" parent="WIyWlLk6GJQsqaUBKTNV-1" source="l3N1diXPYdpLU_695h6g-77" target="l3N1diXPYdpLU_695h6g-67" edge="1">
          <mxGeometry relative="1" as="geometry">
            <mxPoint x="-1415.9999999999973" y="444.9999999999999" as="sourcePoint" />
          </mxGeometry>
        </mxCell>
        <mxCell id="l3N1diXPYdpLU_695h6g-77" value="CustomerPhone" style="ellipse;shape=doubleEllipse;margin=3;whiteSpace=wrap;html=1;align=center;" parent="WIyWlLk6GJQsqaUBKTNV-1" vertex="1">
          <mxGeometry x="-1510" y="380" width="100" height="40" as="geometry" />
        </mxCell>
        <mxCell id="l3N1diXPYdpLU_695h6g-90" style="edgeStyle=orthogonalEdgeStyle;rounded=0;orthogonalLoop=1;jettySize=auto;html=1;exitX=0.5;exitY=1;exitDx=0;exitDy=0;entryX=0.5;entryY=0;entryDx=0;entryDy=0;endArrow=none;endFill=0;" parent="WIyWlLk6GJQsqaUBKTNV-1" source="l3N1diXPYdpLU_695h6g-89" target="l3N1diXPYdpLU_695h6g-67" edge="1">
          <mxGeometry relative="1" as="geometry" />
        </mxCell>
        <mxCell id="l3N1diXPYdpLU_695h6g-89" value="add" style="shape=rhombus;perimeter=rhombusPerimeter;whiteSpace=wrap;html=1;align=center;" parent="WIyWlLk6GJQsqaUBKTNV-1" vertex="1">
          <mxGeometry x="-1442.5" y="299.9999999999999" width="120" height="60" as="geometry" />
        </mxCell>
        <mxCell id="SdZDki-d2998t1S9M0rV-53" style="rounded=0;orthogonalLoop=1;jettySize=auto;html=1;exitX=0.5;exitY=0;exitDx=0;exitDy=0;endArrow=none;endFill=0;entryX=0.4;entryY=1;entryDx=0;entryDy=0;entryPerimeter=0;" parent="WIyWlLk6GJQsqaUBKTNV-1" source="l3N1diXPYdpLU_695h6g-91" target="RfL5RgnEd81x4pItcq7L-63" edge="1">
          <mxGeometry relative="1" as="geometry">
            <mxPoint x="-930" y="230" as="targetPoint" />
          </mxGeometry>
        </mxCell>
        <mxCell id="l3N1diXPYdpLU_695h6g-91" value="connect" style="shape=rhombus;perimeter=rhombusPerimeter;whiteSpace=wrap;html=1;align=center;" parent="WIyWlLk6GJQsqaUBKTNV-1" vertex="1">
          <mxGeometry x="-795" y="302.5" width="91" height="55" as="geometry" />
        </mxCell>
        <mxCell id="SdZDki-d2998t1S9M0rV-1" style="rounded=0;orthogonalLoop=1;jettySize=auto;html=1;exitX=0.5;exitY=0;exitDx=0;exitDy=0;endArrow=none;endFill=0;" parent="WIyWlLk6GJQsqaUBKTNV-1" source="SdZDki-d2998t1S9M0rV-0" target="RfL5RgnEd81x4pItcq7L-63" edge="1">
          <mxGeometry relative="1" as="geometry" />
        </mxCell>
        <mxCell id="SdZDki-d2998t1S9M0rV-0" value="&lt;u&gt;S_ID&lt;/u&gt;" style="ellipse;whiteSpace=wrap;html=1;align=center;" parent="WIyWlLk6GJQsqaUBKTNV-1" vertex="1">
          <mxGeometry x="-704" y="212.5" width="90" height="30" as="geometry" />
        </mxCell>
        <mxCell id="SdZDki-d2998t1S9M0rV-3" style="rounded=0;orthogonalLoop=1;jettySize=auto;html=1;exitX=0.5;exitY=0;exitDx=0;exitDy=0;entryX=1;entryY=0.5;entryDx=0;entryDy=0;endArrow=none;endFill=0;" parent="WIyWlLk6GJQsqaUBKTNV-1" source="SdZDki-d2998t1S9M0rV-2" target="RfL5RgnEd81x4pItcq7L-63" edge="1">
          <mxGeometry relative="1" as="geometry" />
        </mxCell>
        <mxCell id="SdZDki-d2998t1S9M0rV-2" value="Stock" style="ellipse;whiteSpace=wrap;html=1;align=center;" parent="WIyWlLk6GJQsqaUBKTNV-1" vertex="1">
          <mxGeometry x="-670" y="145" width="90" height="30" as="geometry" />
        </mxCell>
        <mxCell id="SdZDki-d2998t1S9M0rV-8" style="rounded=0;orthogonalLoop=1;jettySize=auto;html=1;exitX=0.5;exitY=1;exitDx=0;exitDy=0;entryX=0.5;entryY=1;entryDx=0;entryDy=0;endArrow=none;endFill=0;" parent="WIyWlLk6GJQsqaUBKTNV-1" source="SdZDki-d2998t1S9M0rV-6" target="EDRNN4_FcT9ov7Aa4F4T-3" edge="1">
          <mxGeometry relative="1" as="geometry">
            <mxPoint x="-1177" y="470" as="targetPoint" />
          </mxGeometry>
        </mxCell>
        <mxCell id="SdZDki-d2998t1S9M0rV-6" value="FirstName" style="ellipse;whiteSpace=wrap;html=1;align=center;" parent="WIyWlLk6GJQsqaUBKTNV-1" vertex="1">
          <mxGeometry x="-1610" y="575" width="90" height="30" as="geometry" />
        </mxCell>
        <mxCell id="SdZDki-d2998t1S9M0rV-16" style="rounded=0;orthogonalLoop=1;jettySize=auto;html=1;exitX=0.5;exitY=1;exitDx=0;exitDy=0;entryX=0.5;entryY=1;entryDx=0;entryDy=0;endArrow=none;endFill=0;" parent="WIyWlLk6GJQsqaUBKTNV-1" source="SdZDki-d2998t1S9M0rV-15" target="EDRNN4_FcT9ov7Aa4F4T-3" edge="1">
          <mxGeometry relative="1" as="geometry">
            <mxPoint x="-1177" y="470" as="targetPoint" />
          </mxGeometry>
        </mxCell>
        <mxCell id="SdZDki-d2998t1S9M0rV-15" value="LastName" style="ellipse;whiteSpace=wrap;html=1;align=center;" parent="WIyWlLk6GJQsqaUBKTNV-1" vertex="1">
          <mxGeometry x="-1500" y="575" width="90" height="30" as="geometry" />
        </mxCell>
        <mxCell id="SdZDki-d2998t1S9M0rV-39" style="rounded=0;orthogonalLoop=1;jettySize=auto;html=1;exitX=1;exitY=0.5;exitDx=0;exitDy=0;entryX=0;entryY=0.5;entryDx=0;entryDy=0;endArrow=none;endFill=0;" parent="WIyWlLk6GJQsqaUBKTNV-1" source="zxQTVrmICiQA8yJ6TlIw-2" target="l3N1diXPYdpLU_695h6g-67" edge="1">
          <mxGeometry relative="1" as="geometry">
            <mxPoint x="-1461" y="490" as="sourcePoint" />
          </mxGeometry>
        </mxCell>
        <mxCell id="SdZDki-d2998t1S9M0rV-44" style="rounded=0;orthogonalLoop=1;jettySize=auto;html=1;exitX=0;exitY=0.5;exitDx=0;exitDy=0;entryX=1;entryY=1;entryDx=0;entryDy=0;endArrow=none;endFill=0;" parent="WIyWlLk6GJQsqaUBKTNV-1" source="SdZDki-d2998t1S9M0rV-43" target="RfL5RgnEd81x4pItcq7L-41" edge="1">
          <mxGeometry relative="1" as="geometry" />
        </mxCell>
        <mxCell id="SdZDki-d2998t1S9M0rV-43" value="Order_Quantity" style="ellipse;whiteSpace=wrap;html=1;align=center;" parent="WIyWlLk6GJQsqaUBKTNV-1" vertex="1">
          <mxGeometry x="-704" y="585" width="90" height="30" as="geometry" />
        </mxCell>
        <mxCell id="SdZDki-d2998t1S9M0rV-46" style="rounded=0;orthogonalLoop=1;jettySize=auto;html=1;exitX=0.5;exitY=0;exitDx=0;exitDy=0;entryX=0.25;entryY=1;entryDx=0;entryDy=0;endArrow=none;endFill=0;" parent="WIyWlLk6GJQsqaUBKTNV-1" source="SdZDki-d2998t1S9M0rV-45" target="RfL5RgnEd81x4pItcq7L-41" edge="1">
          <mxGeometry relative="1" as="geometry" />
        </mxCell>
        <mxCell id="SdZDki-d2998t1S9M0rV-45" value="Order_Date" style="ellipse;whiteSpace=wrap;html=1;align=center;" parent="WIyWlLk6GJQsqaUBKTNV-1" vertex="1">
          <mxGeometry x="-833" y="555" width="90" height="30" as="geometry" />
        </mxCell>
        <mxCell id="SdZDki-d2998t1S9M0rV-48" style="rounded=0;orthogonalLoop=1;jettySize=auto;html=1;exitX=0;exitY=0;exitDx=0;exitDy=0;entryX=0.75;entryY=1;entryDx=0;entryDy=0;endArrow=none;endFill=0;" parent="WIyWlLk6GJQsqaUBKTNV-1" source="SdZDki-d2998t1S9M0rV-47" target="RfL5RgnEd81x4pItcq7L-2" edge="1">
          <mxGeometry relative="1" as="geometry" />
        </mxCell>
        <mxCell id="SdZDki-d2998t1S9M0rV-47" value="user_activated" style="ellipse;whiteSpace=wrap;html=1;align=center;" parent="WIyWlLk6GJQsqaUBKTNV-1" vertex="1">
          <mxGeometry x="-1322.5" y="220" width="90" height="30" as="geometry" />
        </mxCell>
        <mxCell id="zxQTVrmICiQA8yJ6TlIw-1" value="phone" style="ellipse;whiteSpace=wrap;html=1;align=center;" parent="WIyWlLk6GJQsqaUBKTNV-1" vertex="1">
          <mxGeometry x="-1291" y="40" width="90" height="30" as="geometry" />
        </mxCell>
        <mxCell id="zxQTVrmICiQA8yJ6TlIw-2" value="CustomerAddress" style="ellipse;whiteSpace=wrap;html=1;align=center;" parent="WIyWlLk6GJQsqaUBKTNV-1" vertex="1">
          <mxGeometry x="-1560" y="450" width="100" height="50" as="geometry" />
        </mxCell>
        <mxCell id="zxQTVrmICiQA8yJ6TlIw-3" value="E-mail" style="ellipse;whiteSpace=wrap;html=1;align=center;" parent="WIyWlLk6GJQsqaUBKTNV-1" vertex="1">
          <mxGeometry x="-1381" y="30" width="90" height="30" as="geometry" />
        </mxCell>
        <mxCell id="zxQTVrmICiQA8yJ6TlIw-4" value="Address" style="ellipse;whiteSpace=wrap;html=1;align=center;" parent="WIyWlLk6GJQsqaUBKTNV-1" vertex="1">
          <mxGeometry x="-1250" y="80" width="90" height="30" as="geometry" />
        </mxCell>
        <mxCell id="EDRNN4_FcT9ov7Aa4F4T-3" value="CustomerName" style="ellipse;whiteSpace=wrap;html=1;align=center;" parent="WIyWlLk6GJQsqaUBKTNV-1" vertex="1">
          <mxGeometry x="-1550" y="530" width="90" height="30" as="geometry" />
        </mxCell>
        <mxCell id="EDRNN4_FcT9ov7Aa4F4T-4" value="" style="endArrow=none;html=1;rounded=0;exitX=1;exitY=0.5;exitDx=0;exitDy=0;entryX=0.25;entryY=1;entryDx=0;entryDy=0;" parent="WIyWlLk6GJQsqaUBKTNV-1" source="EDRNN4_FcT9ov7Aa4F4T-3" target="l3N1diXPYdpLU_695h6g-67" edge="1">
          <mxGeometry width="50" height="50" relative="1" as="geometry">
            <mxPoint x="-1450" y="560" as="sourcePoint" />
            <mxPoint x="-1400" y="510" as="targetPoint" />
          </mxGeometry>
        </mxCell>
        <mxCell id="d7aZPaYVPRHoCa1M2XDN-0" value="MembershipDate" style="ellipse;whiteSpace=wrap;html=1;" vertex="1" parent="WIyWlLk6GJQsqaUBKTNV-1">
          <mxGeometry x="-1301" y="464" width="110" height="50" as="geometry" />
        </mxCell>
        <mxCell id="d7aZPaYVPRHoCa1M2XDN-1" value="" style="endArrow=none;html=1;rounded=0;exitX=1;exitY=0.5;exitDx=0;exitDy=0;entryX=0;entryY=0.5;entryDx=0;entryDy=0;" edge="1" parent="WIyWlLk6GJQsqaUBKTNV-1" source="l3N1diXPYdpLU_695h6g-67" target="d7aZPaYVPRHoCa1M2XDN-0">
          <mxGeometry width="50" height="50" relative="1" as="geometry">
            <mxPoint x="-1340" y="530" as="sourcePoint" />
            <mxPoint x="-1290" y="480" as="targetPoint" />
          </mxGeometry>
        </mxCell>
        <mxCell id="d7aZPaYVPRHoCa1M2XDN-4" value="" style="endArrow=none;html=1;rounded=0;entryX=0.5;entryY=1;entryDx=0;entryDy=0;exitX=0.32;exitY=0;exitDx=0;exitDy=0;exitPerimeter=0;" edge="1" parent="WIyWlLk6GJQsqaUBKTNV-1" source="RfL5RgnEd81x4pItcq7L-41" target="l3N1diXPYdpLU_695h6g-91">
          <mxGeometry width="50" height="50" relative="1" as="geometry">
            <mxPoint x="-760" y="480" as="sourcePoint" />
            <mxPoint x="-710" y="430" as="targetPoint" />
          </mxGeometry>
        </mxCell>
      </root>
    </mxGraphModel>
  </diagram>
</mxfile>
